<?xml version="1.0" encoding="UTF-8"?>
<svg width="250px" height="166px" viewBox="0 0 250 166" version="1.1" xmlns="http://www.w3.org/2000/svg" xmlns:xlink="http://www.w3.org/1999/xlink">
    <title>Demo UserGuide</title>
    <g id="Demo-UserGuide" stroke="none" stroke-width="1" fill="none" fill-rule="evenodd">
        <g id="undraw_setup-wizard_wzp9" transform="translate(40.000000, 4.000000)" fill-rule="nonzero">
            <path d="M38.0572733,48.3662985 C37.0737485,48.3662985 36.276444,49.1636029 36.276444,50.1471278 C36.276444,51.1306527 37.0737485,51.9279571 38.0572733,51.9279571 L60.4423114,51.9279571 L60.4423114,51.1510703 C60.4421739,50.0295521 61.005939,48.983117 61.9426022,48.3662985 L38.0572733,48.3662985 Z" id="Path" fill="#E6E6E6"></path>
            <path d="M58.4265818,44.3594325 L50.8580571,44.3594325 C49.8745322,44.3594325 49.0772278,43.562128 49.0772278,42.5786031 C49.0772278,41.5950782 49.8745322,40.7977738 50.8580571,40.7977738 L58.4265818,40.7977738 C59.4101067,40.7977738 60.2074111,41.5950782 60.2074111,42.5786031 C60.2074111,43.562128 59.4101067,44.3594325 58.4265818,44.3594325 Z" id="Path" fill="#E6E6E6"></path>
            <path d="M41.4518301,31.6710235 L12.0681461,31.6710235 C11.0846213,31.6710235 10.2873168,30.873719 10.2873168,29.8901941 C10.2873168,28.9066693 11.0846213,28.1093648 12.0681461,28.1093648 L41.4518301,28.1093648 C42.435355,28.1093648 43.2326595,28.9066693 43.2326595,29.8901941 C43.2326595,30.873719 42.435355,31.6710235 41.4518301,31.6710235 Z" id="Path" fill="#E6E6E6"></path>
            <path d="M28.6521193,24.1024988 L24.867857,24.1024988 C23.8843321,24.1024988 23.0870276,23.3051944 23.0870276,22.3216695 C23.0870276,21.3381446 23.8843321,20.5408401 24.867857,20.5408401 L28.6521193,20.5408401 C29.6356442,20.5408401 30.4329486,21.3381446 30.4329486,22.3216695 C30.4329486,23.3051944 29.6356442,24.1024988 28.6521193,24.1024988 Z" id="Path" fill="#E6E6E6"></path>
            <path d="M60.2187839,84.1820108 L32.5184289,84.1820108 C30.4294129,84.1796603 28.736517,82.4867644 28.7341666,80.3977484 L28.7341666,36.5804783 C28.7365182,34.4914628 30.4294134,32.7985677 32.5184289,32.796216 L76.7661811,32.796216 C78.8551966,32.7985677 80.5480917,34.4914628 80.5504434,36.5804783 L80.5504434,47.440777 L80.1052361,47.440777 L80.1052361,36.5804783 C80.1031506,34.7372337 78.6094257,33.2435088 76.7661811,33.2414233 L32.5184311,33.2414233 C30.6751865,33.2435088 29.1814616,34.7372337 29.1793761,36.5804783 L29.1793761,80.3977484 C29.1814616,82.2409931 30.6751865,83.734718 32.5184311,83.7368034 L60.2187862,83.7368034 L60.2187839,84.1820108 Z" id="Path" fill="#CCCCCC"></path>
            <path d="M28.9567724,57.9513007 L8.76453855,57.9513007 C6.67552305,57.948949 4.98262791,56.2560539 4.98027621,54.1670384 L4.98027621,18.5374071 C4.98262791,16.4483917 6.67552305,14.7554965 8.76453855,14.7531448 L44.7554088,14.7531448 C46.8444243,14.7554965 48.5373194,16.4483917 48.5396711,18.5374071 L48.5396711,33.0188197 L48.0944638,33.0188197 L48.0944638,18.5374071 C48.0923783,16.6941625 46.5986534,15.2004376 44.7554088,15.1983521 L8.76453855,15.1983521 C6.92129391,15.2004376 5.42756902,16.6941625 5.42548355,18.5374071 L5.42548355,54.1670384 C5.42756902,56.010283 6.92129391,57.5040079 8.76453855,57.5060934 L28.9567724,57.5060934 L28.9567724,57.9513007 Z" id="Path" fill="#CCCCCC"></path>
            <path d="M119.085008,48.3662985 C120.021671,48.983117 120.585436,50.0295521 120.585299,51.1510703 L120.585299,51.9279571 L142.970337,51.9279571 C143.953862,51.9279571 144.751166,51.1306527 144.751166,50.1471278 C144.751166,49.1636029 143.953862,48.3662985 142.970337,48.3662985 L119.085008,48.3662985 Z" id="Path" fill="#E6E6E6"></path>
            <path d="M120.820199,42.5786031 C120.821324,41.5955446 121.61797,40.7988987 122.601028,40.7977738 L130.169553,40.7977738 C131.153078,40.7977738 131.950382,41.5950782 131.950382,42.5786031 C131.950382,43.562128 131.153078,44.3594325 130.169553,44.3594325 L122.601028,44.3594325 C121.617969,44.3583088 120.821323,43.5616622 120.820199,42.5786031 Z" id="Path" fill="#E6E6E6"></path>
            <path d="M137.794953,29.8901941 C137.796078,28.9071356 138.592724,28.1104897 139.575782,28.1093648 L168.959466,28.1093648 C169.942991,28.1093648 170.740296,28.9066693 170.740296,29.8901941 C170.740296,30.873719 169.942991,31.6710235 168.959466,31.6710235 L139.575782,31.6710235 C138.592723,31.6698998 137.796077,30.8732532 137.794953,29.8901941 Z" id="Path" fill="#E6E6E6"></path>
            <path d="M150.594664,22.3216695 C150.595789,21.3386109 151.392435,20.541965 152.375493,20.5408401 L156.159755,20.5408401 C157.14328,20.5408401 157.940585,21.3381446 157.940585,22.3216695 C157.940585,23.3051944 157.14328,24.1024988 156.159755,24.1024988 L152.375493,24.1024988 C151.392434,24.1013751 150.595787,23.3047285 150.594664,22.3216695 Z" id="Path" fill="#E6E6E6"></path>
            <path d="M120.808826,84.1820108 L148.509181,84.1820108 C150.598197,84.1796603 152.291093,82.4867644 152.293444,80.3977484 L152.293444,36.5804783 C152.291092,34.4914628 150.598197,32.7985677 148.509181,32.796216 L104.261429,32.796216 C102.172414,32.7985677 100.479518,34.4914628 100.477167,36.5804783 L100.477167,47.440777 L100.922374,47.440777 L100.922374,36.5804783 C100.92446,34.7372337 102.418184,33.2435088 104.261429,33.2414233 L148.509179,33.2414233 C150.352424,33.2435088 151.846149,34.7372337 151.848234,36.5804783 L151.848234,80.3977484 C151.846149,82.2409931 150.352424,83.734718 148.509179,83.7368034 L120.808824,83.7368034 L120.808826,84.1820108 Z" id="Path" fill="#CCCCCC"></path>
            <path d="M152.070838,57.9513007 L172.263072,57.9513007 C174.352087,57.948949 176.044982,56.2560539 176.047334,54.1670384 L176.047334,18.5374071 C176.044982,16.4483917 174.352087,14.7554965 172.263072,14.7531448 L136.272201,14.7531448 C134.183186,14.7554965 132.490291,16.4483917 132.487939,18.5374071 L132.487939,33.0188197 L132.933146,33.0188197 L132.933146,18.5374071 C132.935232,16.6941625 134.428957,15.2004376 136.272201,15.1983521 L172.263072,15.1983521 C174.106316,15.2004376 175.600041,16.6941625 175.602127,18.5374071 L175.602127,54.1670384 C175.600041,56.010283 174.106316,57.5040079 172.263072,57.5060934 L152.070838,57.5060934 L152.070838,57.9513007 Z" id="Path" fill="#CCCCCC"></path>
            <path d="M117.152768,47.3668102 L63.7813664,47.3668102 C61.6930977,47.3709609 60.0012547,49.0628038 59.9971041,51.1510726 L59.9971041,104.017217 C59.9992905,106.106301 61.6922823,107.799293 63.7813664,107.80148 L117.152768,107.80148 C119.241852,107.799292 120.934843,106.106301 120.93703,104.017217 L120.93703,51.1510726 C120.934842,49.0619895 119.241851,47.3689991 117.152768,47.3668102 Z M120.491823,104.017217 C120.489581,105.860397 118.995948,107.35403 117.152768,107.356272 L63.7813664,107.356272 C61.9381868,107.35403 60.4445535,105.860397 60.4423114,104.017217 L60.4423114,51.1510726 C60.4451577,49.3081436 61.9384375,47.8148638 63.7813664,47.8120176 L117.152768,47.8120176 C118.995948,47.8142597 120.489581,49.3078929 120.491823,51.1510726 L120.491823,104.017217 Z" id="Shape" fill="#3F3D56"></path>
            <path d="M112.949848,67.9554211 L67.9839077,67.9554211 C67.0003828,67.9554211 66.2030784,67.1581167 66.2030784,66.1745918 C66.2030784,65.1910669 67.0003828,64.3937625 67.9839077,64.3937625 L112.949848,64.3937625 C113.933373,64.3937625 114.730678,65.1910669 114.730678,66.1745918 C114.730678,67.1581167 113.933373,67.9554211 112.949848,67.9554211 Z" id="Path" fill="#CCCCCC"></path>
            <path d="M100.150138,60.3868965 L80.7836185,60.3868965 C79.8000937,60.3868965 79.0027892,59.589592 79.0027892,58.6060671 C79.0027892,57.6225422 79.8000937,56.8252378 80.7836185,56.8252378 L100.150138,56.8252378 C101.133662,56.8252378 101.930967,57.6225422 101.930967,58.6060671 C101.930967,59.589592 101.133662,60.3868965 100.150138,60.3868965 Z" id="Path" fill="#397ED1"></path>
            <path d="M87.2391249,78.6403971 L67.8726059,78.6403971 C66.889081,78.6403971 66.0917765,77.8430927 66.0917765,76.8595678 C66.0917765,75.8760429 66.889081,75.0787384 67.8726059,75.0787384 L87.2391249,75.0787384 C88.2226497,75.0787384 89.0199542,75.8760429 89.0199542,76.8595678 C89.0199542,77.8430927 88.2226497,78.6403971 87.2391249,78.6403971 Z" id="Path" fill="#CCCCCC"></path>
            <path d="M87.2391249,86.4315254 L67.8726059,86.4315254 C66.889081,86.4315254 66.0917765,85.634221 66.0917765,84.6506961 C66.0917765,83.6671712 66.889081,82.8698668 67.8726059,82.8698668 L87.2391249,82.8698668 C88.2226497,82.8698668 89.0199542,83.6671712 89.0199542,84.6506961 C89.0199542,85.634221 88.2226497,86.4315254 87.2391249,86.4315254 Z" id="Path" fill="#CCCCCC"></path>
            <path d="M87.2391249,94.2226538 L67.8726059,94.2226538 C66.889081,94.2226538 66.0917765,93.4253493 66.0917765,92.4418244 C66.0917765,91.4582996 66.889081,90.6609951 67.8726059,90.6609951 L87.2391249,90.6609951 C88.2226497,90.6609951 89.0199542,91.4582996 89.0199542,92.4418244 C89.0199542,93.4253493 88.2226497,94.2226538 87.2391249,94.2226538 Z" id="Path" fill="#CCCCCC"></path>
            <circle id="fc69f6bd-6aec-467a-b158-496b315f473e" fill="#397ED1" cx="111.392978" cy="76.8437919" r="3.32327908"></circle>
            <path d="M111.063658,78.1115269 C110.988895,78.1116517 110.916117,78.0874646 110.856301,78.0426128 L110.852592,78.0398302 L110.071576,77.4423798 C109.973169,77.3669365 109.922485,77.2447243 109.938617,77.1217793 C109.954749,76.9988342 110.035246,76.8938346 110.149785,76.8463328 C110.264325,76.798831 110.395506,76.8160437 110.493913,76.8914869 L110.999793,77.2794183 L112.195211,75.719857 C112.251194,75.6468344 112.333892,75.5990416 112.425112,75.5869928 C112.516333,75.574944 112.608604,75.5996261 112.681627,75.6556092 L112.681727,75.6556849 L112.674307,75.665987 L112.681927,75.6556849 C112.833812,75.7724153 112.862523,75.9900742 112.746101,76.1421963 L111.340028,77.975756 C111.27409,78.0613826 111.172035,78.1114159 111.063963,78.111099 L111.063658,78.1115269 Z" id="f31c0d86-d70b-4e63-97a7-2fc94b4d7c12-111" fill="#FFFFFF"></path>
            <path d="M26.7599748,10.3308536 C23.9071918,10.3308536 21.5945747,8.01819198 21.5945747,5.16540901 C21.5945747,2.31262603 23.9072274,0 26.7600104,0 C29.6127934,0 31.9254283,2.31264384 31.9254283,5.16542681 C31.9221885,8.01688064 29.6114286,10.3276285 26.7599748,10.3308536 L26.7599748,10.3308536 Z M26.7599748,0.445207333 C24.153073,0.445207333 22.039782,2.55854286 22.039782,5.16544462 C22.039782,7.77234638 24.1531086,9.8856463 26.7600104,9.8856463 C29.3669121,9.8856463 31.480221,7.77232857 31.480221,5.16542681 C31.4772731,2.55973319 29.3656684,0.448140485 26.7599748,0.445207333 L26.7599748,0.445207333 Z" id="Shape" fill="#CCCCCC"></path>
            <path d="M26.2701643,7.05096519 C26.1589644,7.0511516 26.0507186,7.0151772 25.9617514,6.9484666 L25.9562353,6.9443284 L24.7945981,6.0557146 C24.6482328,5.94350448 24.572849,5.76173309 24.5968432,5.57887195 C24.6208374,5.39601082 24.7405642,5.2398409 24.9109237,5.16918991 C25.0812831,5.09853892 25.2763936,5.12414042 25.4227589,5.23635057 L26.1751749,5.81333927 L27.9531705,3.49374451 C28.0364335,3.38513265 28.1594333,3.31404672 28.2951098,3.29612573 C28.4307862,3.27820475 28.5680247,3.31491682 28.6766324,3.39818521 L28.6767816,3.39829874 L28.6657471,3.41362055 L28.6770798,3.39829874 C28.9029848,3.57191622 28.9456871,3.89564892 28.7725278,4.12190535 L26.6812198,6.84903622 C26.5831521,6.97639849 26.4313611,7.05082098 26.2706185,7.0503523 L26.2701643,7.05096519 Z" id="b565f894-1e41-4a11-b880-46bff78dfbdf-112" fill="#CCCCCC"></path>
            <path d="M59.5262995,28.3617506 C56.67352,28.3617506 54.3609262,26.0490677 54.3609262,23.1962882 C54.3609262,20.3435087 56.6735913,18.030897 59.5263708,18.030897 C62.3791503,18.030897 64.6917798,20.3435443 64.6917798,23.1963238 C64.6885546,26.0477941 62.3777699,28.3585549 59.5262995,28.3617506 L59.5262995,28.3617506 Z M59.5262995,18.4761043 C56.9194013,18.4761043 54.8061335,20.5894611 54.8061335,23.1963594 C54.8061335,25.8032577 56.9194725,27.9165433 59.5263708,27.9165433 C62.1332691,27.9165433 64.2465725,25.8032221 64.2465725,23.1963238 C64.2436282,20.5906182 62.1320051,18.4790191 59.5262995,18.4761043 L59.5262995,18.4761043 Z" id="Shape" fill="#CCCCCC"></path>
            <path d="M59.0365136,25.0818622 C58.9253137,25.0820486 58.8170678,25.0460742 58.7281007,24.9793636 L58.7225846,24.9752254 L57.5609474,24.0866116 C57.4145821,23.9744015 57.3391983,23.7926301 57.3631925,23.6097689 C57.3871867,23.4269078 57.5069135,23.2707379 57.6772729,23.2000869 C57.8476324,23.1294359 58.0427429,23.1550374 58.1891082,23.2672476 L58.9415242,23.8442363 L60.7195198,21.5246415 C60.8027828,21.4160296 60.9257826,21.3449437 61.061459,21.3270227 C61.1971355,21.3091017 61.3343739,21.3458138 61.4429817,21.4290822 L61.4431308,21.4291957 L61.4320964,21.4445175 L61.4434291,21.4291957 C61.6693341,21.6028132 61.7120364,21.9265459 61.5388771,22.1528023 L59.4475669,24.8799332 C59.3494992,25.0072955 59.1977081,25.081718 59.0369655,25.0812493 L59.0365136,25.0818622 Z" id="a1067fe6-b388-4736-89af-b6090c7ddfc7-113" fill="#CCCCCC"></path>
            <circle id="a6907563-545c-4a91-99f2-6d7f4e57ba01" fill="#397ED1" cx="111.392978" cy="84.6349202" r="3.32327908"></circle>
            <path d="M111.063658,85.9026552 C110.988895,85.90278 110.916117,85.8785929 110.856301,85.8337411 L110.852592,85.8309586 L110.071576,85.2335081 C109.973169,85.1580649 109.922485,85.0358527 109.938617,84.9129076 C109.954749,84.7899626 110.035246,84.684963 110.149785,84.6374612 C110.264325,84.5899594 110.395506,84.607172 110.493913,84.6826152 L110.999793,85.0705467 L112.195211,83.5109854 C112.251194,83.4379627 112.333892,83.39017 112.425112,83.3781212 C112.516333,83.3660723 112.608604,83.3907544 112.681627,83.4467375 L112.681727,83.4468132 L112.674307,83.4571153 L112.681927,83.4468132 C112.833812,83.5635437 112.862523,83.7812025 112.746101,83.9333246 L111.340028,85.7668843 C111.27409,85.8525109 111.172035,85.9025442 111.063963,85.9022273 L111.063658,85.9026552 Z" id="f071b9ad-7606-418c-8652-2e0910ae4e99-114" fill="#FFFFFF"></path>
            <circle id="a9a7744d-510c-41c6-a641-cf6a8a976d00" fill="#397ED1" cx="111.392978" cy="92.4418244" r="3.32327908"></circle>
            <path d="M111.063658,93.7095595 C110.988895,93.7096842 110.916117,93.6854972 110.856301,93.6406454 L110.852592,93.6378628 L110.071576,93.0404101 C109.919699,92.9237084 109.891068,92.7060346 110.007603,92.5540287 C110.124137,92.4020228 110.341779,92.3731525 110.493913,92.4895195 L110.999793,92.8774509 L112.195211,91.3178896 C112.251193,91.2448664 112.333891,91.1970733 112.425112,91.1850245 C112.516333,91.1729756 112.608604,91.1976581 112.681627,91.2536417 L112.681727,91.2537152 L112.674307,91.2640173 L112.681927,91.2537152 C112.833812,91.3704457 112.862523,91.5881045 112.746101,91.7402267 L111.340028,93.5737886 C111.274092,93.6594194 111.172037,93.7094569 111.063963,93.7091427 L111.063658,93.7095595 Z" id="ee4f98ac-d41c-4601-9f0c-7c3b6a7a76ac-115" fill="#FFFFFF"></path>
            <path d="M90.4717953,42.8309889 C86.9659501,42.7712087 85.3727801,40.1112685 85.3729426,37.6651281 C85.3731652,35.2189876 86.9664932,32.5593746 90.4644583,32.5001353 L90.4720135,32.5001353 C93.9704126,32.5598087 95.5636272,35.2197489 95.5634736,37.6658894 C95.56332,40.1120298 93.9698673,42.7717519 90.4717953,42.8309889 Z M90.4682626,32.9453426 C87.2734548,33.0012162 85.8183124,35.4307126 85.8181499,37.6651281 C85.8179874,39.9005141 87.2742005,42.331217 90.4718488,42.3857816 C93.661668,42.3316533 95.1181037,39.9011641 95.1182662,37.6658894 C95.1183753,35.4314828 93.6630816,33.001973 90.4682626,32.9453426 L90.4682626,32.9453426 Z" id="Shape" fill="#397ED1"></path>
            <path d="M91.6275536,37.946085 C92.521107,39.4983961 90.068324,40.1046461 89.1299404,39.1695348 L89.3649899,38.6672653 C90.8906865,39.9851636 92.2349767,37.7024008 89.9045967,37.9193459 L89.9045967,37.369034 C92.0386335,37.5411356 90.8399373,35.3930748 89.4184125,36.6638256 L89.1886855,36.1616629 C90.3472397,34.9592491 92.9481788,36.4131828 91.1120124,37.6147818 C91.3168232,37.6626963 91.4988807,37.7796923 91.6275536,37.946085 L91.6275536,37.946085 Z" id="Path" fill="#397ED1"></path>
            <path d="M121.855326,28.3617506 C119.002547,28.3617506 116.689953,26.0490677 116.689953,23.1962882 C116.689953,20.3435087 119.002618,18.030897 121.855397,18.030897 C124.708177,18.030897 127.020806,20.3435443 127.020806,23.1963238 C127.017581,26.0477941 124.706797,28.3585549 121.855326,28.3617506 Z M121.855326,18.4761043 C119.248428,18.4761043 117.13516,20.5894611 117.13516,23.1963594 C117.13516,25.8032577 119.248499,27.9165433 121.855397,27.9165433 C124.462296,27.9165433 126.575599,25.8032221 126.575599,23.1963238 C126.572655,20.5906182 124.461032,18.4790191 121.855326,18.4761043 L121.855326,18.4761043 Z" id="Shape" fill="#CCCCCC"></path>
            <path d="M123.289802,24.3556303 L122.750193,24.3556303 L122.750193,25.0982228 L122.077057,25.0982228 L122.077057,24.3556303 L120.420899,24.3556303 L120.420899,23.8427092 L122.199934,21.2943959 L122.750193,21.2943959 L122.750193,23.8160791 L123.289802,23.8160791 L123.289802,24.3556303 Z M122.077057,23.8160791 L122.077057,22.3681758 L121.072669,23.8160791 L122.077057,23.8160791 Z" id="Shape" fill="#CCCCCC"></path>
            <path d="M154.267635,10.3308536 C151.414856,10.3308536 149.102264,8.01816893 149.102264,5.16538971 C149.102264,2.3126105 151.41493,2.56348339e-10 154.26771,2.56348339e-10 C157.120489,2.56348339e-10 159.433118,2.3126476 159.433118,5.16542681 C159.429867,8.01688735 157.119096,10.3276335 154.267635,10.3308536 Z M154.267635,0.445207333 C151.660737,0.445207333 149.547472,2.55856592 149.547472,5.16546391 C149.547472,7.77236191 151.660812,9.8856463 154.26771,9.8856463 C156.874608,9.8856463 158.987911,7.77232481 158.987911,5.16542681 C158.98496,2.55972292 156.873339,0.448126989 154.267635,0.445207333 Z" id="Shape" fill="#CCCCCC"></path>
            <path d="M155.036967,4.76743372 C155.215892,4.86625372 155.362454,5.01466531 155.459024,5.19481495 C155.56151,5.38981805 155.612962,5.60759293 155.608584,5.82784413 C155.613269,6.05932958 155.554115,6.28763443 155.437609,6.48771931 C155.321005,6.68068097 155.15002,6.83491613 154.9461,6.93107903 C154.714036,7.04017774 154.45988,7.09411815 154.203508,7.08868242 C153.963359,7.08846914 153.724958,7.04783275 153.498299,6.96847644 C153.2879,6.90045203 153.093454,6.79052836 152.926682,6.64533161 L153.156409,6.14305982 C153.454841,6.38950714 153.827307,6.52874072 154.214222,6.5384863 C154.413067,6.55210183 154.609422,6.48791141 154.761827,6.35946843 C155.016763,6.06835525 155.014478,5.63280389 154.7565,5.34438235 C154.615405,5.2137294 154.427656,5.14537238 154.235587,5.15472403 C154.090774,5.15378017 153.947247,5.18194573 153.813531,5.23754818 C153.681701,5.29275285 153.56327,5.37563591 153.466256,5.48058686 L153.049579,5.48058686 L153.049579,3.24214004 L155.432287,3.24214004 L155.432287,3.77636881 L153.722706,3.77636881 L153.722706,4.81275805 C153.924906,4.67812992 154.163701,4.60912656 154.406545,4.61515278 C154.626319,4.61053189 154.843535,4.66300101 155.036967,4.76743372 Z" id="Path" fill="#CCCCCC"></path>
            <path d="M32.9886012,115.943151 C32.7150917,115.339792 32.7228807,114.646275 33.0098722,114.049212 C33.2968638,113.452148 33.8335773,113.01287 34.4755937,112.849579 L35.1504123,104.923553 L38.3958023,107.483782 L37.2574294,114.617967 C37.4648137,115.739317 36.8007157,116.838558 35.7116203,117.17665 C34.6225249,117.514742 33.4526796,116.984819 32.9885923,115.943158 L32.9886012,115.943151 Z" id="Path" fill="#FFB8B8"></path>
            <path d="M35.0758267,112.017704 C34.593723,111.953931 34.2271836,111.552917 34.2068866,111.067038 L33.8311561,102.072318 C33.6961078,98.8393874 34.3540847,95.6225099 35.7477002,92.7022507 L39.0796052,85.7203846 C39.5324668,84.8684397 40.3686393,84.287411 41.3250328,84.160111 C42.2537289,84.0292864 43.1877025,84.3609199 43.8259338,85.048126 C43.9854723,85.2185753 44.1287876,85.403514 44.254023,85.600546 C44.7647459,86.4290436 44.8218798,87.4596108 44.4058676,88.339486 L39.2968085,102.296651 L38.9037349,111.389512 C38.8916553,111.668029 38.7640726,111.928917 38.5516564,112.109462 C38.3392402,112.290008 38.0612019,112.373881 37.7843791,112.34092 L35.0890805,112.019465 L35.0758267,112.017704 Z" id="Path" fill="#397ED1"></path>
            <polygon id="Path" fill="#FFB8B8" points="25.5170583 151.317514 28.0160071 152.414504 33.4359611 143.297549 29.7478636 141.678775"></polygon>
            <path d="M25.2377552,150.221876 L30.1590348,152.382022 L30.1592352,152.382109 C30.9910149,152.747225 31.64368,153.427818 31.9736446,154.274157 C32.3036092,155.120497 32.283843,156.063252 31.9186945,156.895018 L31.8739512,156.99693 L23.8163663,153.460105 L25.2377552,150.221876 Z" id="Path" fill="#2F2E41"></path>
            <polygon id="Path" fill="#FFB8B8" points="59.0661021 154.351379 61.795223 154.351379 63.0934476 143.824897 59.0656569 143.825119"></polygon>
            <path d="M58.3700004,153.460486 L63.7444988,153.460263 L63.7447214,153.460263 C64.653109,153.460263 65.5242996,153.821078 66.1666319,154.4634 C66.8089642,155.105722 67.1698083,155.976907 67.1698083,156.885294 L67.1698083,156.996596 L58.3701696,156.996921 L58.3700004,153.460486 Z" id="Path" fill="#2F2E41"></path>
            <path d="M31.5785561,151.3587 C31.473596,151.3587 31.3692966,151.342092 31.2694309,151.309789 L26.6420416,149.822432 C26.1222585,149.652979 25.8329558,149.099427 25.9905875,148.575938 L41.335838,99.7109538 L52.8299271,97.4570917 L52.8703609,97.5229601 C60.4693199,109.888115 63.0058931,128.77682 64.614986,148.790281 C64.6559903,149.333628 64.2575731,149.811116 63.7156672,149.868081 L58.6567584,150.373941 C58.1690507,150.425142 57.7166527,150.113689 57.5904245,149.639825 L48.3274808,116.871007 C48.2902103,116.734044 48.1704336,116.635605 48.0288445,116.625572 C47.8872553,116.615539 47.7547945,116.696105 47.6985832,116.826444 L32.4958168,150.752844 C32.338869,151.12017 31.9780069,151.3587 31.5785561,151.3587 L31.5785561,151.3587 Z" id="Path" fill="#2F2E41"></path>
            <circle id="Oval" fill="#FFB8B8" cx="47.2744074" cy="74.6767051" r="5.46737533"></circle>
            <path d="M40.3580848,101.157878 L40.3205917,101.079617 C40.2951592,101.026357 37.7761939,95.6825643 38.0105911,89.5187912 C38.1717218,85.3187688 41.5790367,81.9724589 45.7812844,81.8872252 L45.7812844,81.8872252 C49.6324991,81.8118682 52.9800997,84.516786 53.7151819,88.2979481 C54.4171759,91.8815644 54.3996214,95.275834 53.6629546,98.3859812 L53.646542,98.4551108 L53.5768136,98.4694576 L40.3580848,101.157878 Z" id="Path" fill="#397ED1"></path>
            <path d="M68.2333462,108.870872 C67.5780089,108.774006 66.999236,108.391842 66.6527635,107.827212 C66.306291,107.262583 66.2277094,106.573487 66.4381634,105.945348 L60.1407769,101.085271 L64.0507146,99.7437345 L69.4313791,104.56462 C70.4863429,104.997618 71.0507192,106.151237 70.7450675,107.249878 C70.4394158,108.348519 69.3603483,109.044918 68.2333418,108.870872 L68.2333462,108.870872 Z" id="Path" fill="#FFB8B8"></path>
            <path d="M52.7794785,98.1565481 L52.7649202,98.1330344 L46.126151,87.3816624 C45.6552657,86.539617 45.6197035,85.5220785 46.030654,84.6492136 C46.4235231,83.7975094 47.2082392,83.1919011 48.1317054,83.0277173 L48.1317054,83.0277173 C48.361306,82.9858937 48.5943082,82.9655844 48.8276824,82.966979 C49.8008025,82.9863315 50.6981565,83.4964455 51.2125134,84.3227453 L60.1782812,96.1770583 L67.6090877,101.432114 C67.8367327,101.593068 67.9869929,101.84162 68.0237278,102.117988 C68.0604627,102.394355 67.980348,102.673528 67.8026527,102.888361 L66.0726927,104.980007 C65.7603053,105.360236 65.2173799,105.455993 64.7937634,105.205576 L52.7794785,98.1565481 Z" id="Path" fill="#397ED1"></path>
            <path d="M46.296672,74.3374571 C46.6996359,73.6745946 47.5888863,73.4873337 48.3609248,73.562941 C49.1329633,73.6385484 49.8837565,73.9099245 50.6594724,73.903912 C52.8134189,73.8872167 54.4760479,71.2620071 53.5704605,69.3076115 C52.8277835,67.7047983 50.9729295,67.0009923 49.295001,66.4486124 C45.7769392,65.2904434 41.7357477,64.1776455 38.5433062,66.0555255 C36.4716899,67.3101738 35.2413851,69.5877858 35.3278474,72.0081702 C35.3996482,73.4860782 35.9656537,75.0041573 35.4869623,76.4042364 C34.9347227,78.0194331 33.1837579,78.8860291 31.5290402,79.3052341 C28.6283742,80.0400889 25.5700291,79.9217172 22.6512208,80.5808244 C19.7324126,81.2399316 16.741423,82.9900171 15.9546347,85.8770308 C15.437847,87.7733336 15.9771044,89.8147495 16.8701413,91.5656119 C18.7115929,95.1759041 21.9589249,97.8682117 25.8478807,99.0089028 C29.7368366,100.149594 33.9239452,99.6379229 37.4237745,97.5943113 C40.9524166,95.5338762 43.4999642,92.0515624 45.0187734,88.2581599 C45.8799126,86.0453761 46.4861501,83.7416878 46.8257587,81.3916582 C47.1659126,79.1917975 46.877287,76.9686814 46.2611734,74.8296383 C46.2022638,74.6680243 46.2151799,74.4889446 46.296672,74.3374571 Z" id="Path" fill="#2F2E41"></path>
            <path d="M85.0346006,157.077539 L0.222603667,157.077539 C0.0996630563,157.077539 0,156.977876 0,156.854936 C0,156.731995 0.0996630563,156.632332 0.222603667,156.632332 L85.0346006,156.632332 C85.1575412,156.632332 85.2572043,156.731995 85.2572043,156.854936 C85.2572043,156.977876 85.1575412,157.077539 85.0346006,157.077539 Z" id="Path" fill="#3F3D56"></path>
        </g>
    </g>
</svg>